<?xml version="1.0" encoding="UTF-8"?>
<svg width="768px" height="768px" viewBox="0 0 768 768" version="1.1" xmlns="http://www.w3.org/2000/svg" xmlns:xlink="http://www.w3.org/1999/xlink">
    <!-- Generator: Sketch 50.2 (55047) - http://www.bohemiancoding.com/sketch -->
    <title>logo_head</title>
    <desc>Created with Sketch.</desc>
    <defs></defs>
    <g id="Page-1" stroke="none" stroke-width="1" fill="none" fill-rule="evenodd">
        <g id="logo" transform="translate(-256.000000, 0.000000)">
            <g id="arrow" transform="translate(1.000000, 0.000000)" fill="#B71C1C">
                <path d="M719,496 L204,920 L44.000304,304 L225,670 L527,304 L463,240 L872,151 L783,560 L719,496 Z"></path>
            </g>
            <g id="sword" transform="translate(368.000000, 215.000000)">
                <path d="M156,309 L84,381 L60,357 L132,285 L81.5,234.5 L96,217 L128,249 L352,25 L441,0 L416,89 L192,313 L224,345 L206.5,359.5 L156,309 Z" fill="#FFFFFF"></path>
                <path d="M24.5685425,384.568542 L56.5685425,336.568542 L88.5685425,384.568542 L56.5685425,432.568542 L24.5685425,384.568542 Z" id="pommel" fill="#FFFFFF" transform="translate(56.568542, 384.568542) rotate(45.000000) translate(-56.568542, -384.568542) "></path>
                <path d="M372,45 L396,69 L188,277 L164,253 L372,45 Z M405,36 L396.000298,68.9994689 L372,44.9994689 L405,36 Z" id="fuller" fill="#B71C1C"></path>
            </g>
        </g>
    </g>
</svg>