<?xml version="1.0" encoding="UTF-8"?>
<svg width="1024px" height="1024px" viewBox="0 0 1024 1024" version="1.1" xmlns="http://www.w3.org/2000/svg" xmlns:xlink="http://www.w3.org/1999/xlink">
    <!-- Generator: Sketch 50.2 (55047) - http://www.bohemiancoding.com/sketch -->
    <title>logo_circle</title>
    <desc>Created with Sketch.</desc>
    <defs></defs>
    <g id="Page-1" stroke="none" stroke-width="1" fill="none" fill-rule="evenodd">
        <g id="logo">
            <g id="arrow" transform="translate(1.000000, 0.000000)" fill="#B71C1C">
                <path d="M719,496 L204,920 L44.000304,304 L225,670 L527,304 L463,240 L872,151 L783,560 L719,496 Z"></path>
            </g>
            <g id="sword" transform="translate(389.000000, 215.000000)">
                <path d="M39.1892244,356.810776 L111,285 L59,233 L75,217 L107,249 L331,25 L420,0 L395,89 L171,313 L203,345 L187,361 L135,309 L63.1892244,380.810776 C63.7197264,383.121692 64,385.528115 64,388 C64,405.673112 49.673112,420 32,420 C14.326888,420 0,405.673112 0,388 C0,370.326888 14.326888,356 32,356 C34.4718846,356 36.8783077,356.280274 39.1892244,356.810776 Z" fill="#FFFFFF"></path>
                <path d="M351,45 L375,69 L167,277 L143,253 L351,45 Z M384,36 L375.000298,68.9994689 L351,44.9994689 L384,36 Z" id="fuller" fill="#B71C1C"></path>
            </g>
        </g>
    </g>
</svg>